<?xml version="1.0" standalone="no"?><!DOCTYPE svg PUBLIC "-//W3C//DTD SVG 1.1//EN" "http://www.w3.org/Graphics/SVG/1.1/DTD/svg11.dtd"><svg t="1487754778129" class="icon" style="" viewBox="0 0 1127 1024" version="1.1" xmlns="http://www.w3.org/2000/svg" p-id="3368" xmlns:xlink="http://www.w3.org/1999/xlink" width="52.828125" height="48"><defs><style type="text/css"></style></defs><path d="M522.640528 1010.354671C542.469638 1028.531394 574.618953 1028.531394 594.448064 1010.354671L1102.203946 544.911766C1122.033056 526.735094 1122.033056 497.264906 1102.203946 479.088234 1082.374835 460.911562 1050.22552 460.911562 1030.39641 479.088234L522.640528 944.531139 594.448064 944.531139 86.69213 479.088234C66.863071 460.911562 34.713705 460.911562 14.884645 479.088234-4.944465 497.264906-4.944465 526.735094 14.884645 544.911766L522.640528 1010.354671ZM522.640528 544.911766C542.469638 563.088438 574.618953 563.088438 594.448064 544.911766L1102.203946 79.468861C1122.033056 61.292189 1122.033056 31.822001 1102.203946 13.645329 1082.374835-4.531394 1050.22552-4.531394 1030.39641 13.645329L522.640528 479.088234 594.448064 479.088234 86.69213 13.645329C66.863071-4.531394 34.713705-4.531394 14.884645 13.645329-4.944465 31.822001-4.944465 61.292189 14.884645 79.468861L522.640528 544.911766Z" p-id="3369" fill="#bfbfbf"></path></svg>